<svg xmlns="http://www.w3.org/2000/svg" x="0px" y="0px"
width="32" height="32"
viewBox="0 0 64 64">
<path fill='red' d="M 49.53125 2 L 22.53125 28 L 30.53125 28 L 18.53125 42 L 26.53125 42 L 13.53125 62 L 41.53125 36 L 32.53125 36 L 45.53125 22 L 36.53125 22 L 49.53125 2 z M 31 7.0332031 C 17.215 7.0332031 6 18.240625 6 32.015625 C 6 40.434625 10.191703 47.888969 16.595703 52.417969 L 21.464844 45.007812 L 12.386719 45.007812 L 24.339844 31.027344 L 15.339844 31.027344 L 38.992188 8.3496094 C 36.480187 7.5006094 33.795 7.0332031 31 7.0332031 z M 46.65625 12.558594 L 42.429688 18.988281 L 52.466797 18.988281 C 50.945797 16.470281 48.93825 14.395594 46.65625 12.558594 z M 52.570312 19.408203 C 50.779313 21.335203 39.939453 33.001953 39.939453 33.001953 L 49.792969 33.001953 L 24.808594 56.222656 C 26.789594 56.729656 28.863 57 31 57 C 44.785 57 56 45.792578 56 32.017578 C 56 27.420578 54.746313 23.112203 52.570312 19.408203 z"></path>
</svg>